<svg xmlns="http://www.w3.org/2000/svg" viewBox="0 0 240 240" role="img" aria-label="辅导员工作台 Logo">
  <defs>
    <linearGradient id="bg" x1="30" y1="20" x2="210" y2="220" gradientUnits="userSpaceOnUse">
      <stop stop-color="#0b3a82"/>
      <stop offset="1" stop-color="#072057"/>
    </linearGradient>
    <linearGradient id="signal" x1="55" y1="68" x2="175" y2="180" gradientUnits="userSpaceOnUse">
      <stop stop-color="#2dd0e0"/>
      <stop offset="1" stop-color="#0bb4c4"/>
    </linearGradient>
  </defs>
  <rect width="240" height="240" rx="58" fill="url(#bg)"/>
  <path d="M45 66c30-11 55-4 75 17 20-21 45-28 75-17v108c-30-8-55 0-75 20-20-20-45-28-75-20z" fill="#fff" fill-opacity=".08" stroke="#fff" stroke-width="11" stroke-linejoin="round"/>
  <path d="M120 83v111" stroke="url(#signal)" stroke-width="8" stroke-linecap="round"/>
  <circle cx="82" cy="108" r="15" fill="url(#signal)"/>
  <path d="M63 148c3-22 35-22 38 0" fill="none" stroke="url(#signal)" stroke-width="11" stroke-linecap="round"/>
  <path d="m147 127 15 15 28-36" fill="none" stroke="#e0a020" stroke-width="13" stroke-linecap="round" stroke-linejoin="round"/>
  <path d="M33 52h24M183 188h24" stroke="#5a90d6" stroke-width="4" stroke-linecap="round" opacity=".55"/>
</svg>
